<?xml version="1.0" encoding="UTF-8" standalone="no"?><!DOCTYPE svg PUBLIC "-//W3C//DTD SVG 1.1//EN" "http://www.w3.org/Graphics/SVG/1.1/DTD/svg11.dtd"><svg width="100%" height="100%" viewBox="0 0 267 267" version="1.1" xmlns="http://www.w3.org/2000/svg" xmlns:xlink="http://www.w3.org/1999/xlink" xml:space="preserve" xmlns:serif="http://www.serif.com/" style="fill-rule:evenodd;clip-rule:evenodd;stroke-linejoin:round;stroke-miterlimit:2;"><path id="collectibles" d="M103.253,109.291l-7.93,0l0,55.51c0,4.361 3.569,7.93 7.93,7.93l55.51,0l0,-7.93l-55.51,0l0,-55.51Zm63.439,-15.859l-47.579,0c-4.362,0 -7.93,3.568 -7.93,7.93l0,47.579c0,4.362 3.568,7.93 7.93,7.93l47.579,0c4.362,0 7.93,-3.568 7.93,-7.93l0,-47.579c0,-4.362 -3.568,-7.93 -7.93,-7.93Zm-11.894,7.93l0,19.824l-3.965,-2.973l-3.965,2.973l0,-19.824l7.93,0Zm11.894,47.579l-47.579,0l0,-47.579l19.825,0l0,35.684l11.895,-8.921l11.895,8.921l0,-35.684l3.964,0l0,47.579Z" style="fill:#fff;fill-rule:nonzero;"/></svg>