<?xml version="1.0" encoding="UTF-8" standalone="no"?><!DOCTYPE svg PUBLIC "-//W3C//DTD SVG 1.1//EN" "http://www.w3.org/Graphics/SVG/1.1/DTD/svg11.dtd"><svg width="100%" height="100%" viewBox="0 0 267 267" version="1.1" xmlns="http://www.w3.org/2000/svg" xmlns:xlink="http://www.w3.org/1999/xlink" xml:space="preserve" xmlns:serif="http://www.serif.com/" style="fill-rule:evenodd;clip-rule:evenodd;stroke-linejoin:round;stroke-miterlimit:2;"><path d="M133.864,111.047l0,11.093l14.791,-14.791l-14.791,-14.791l0,11.093c-16.345,0 -29.583,13.238 -29.583,29.582c0,5.806 1.701,11.205 4.586,15.753l5.398,-5.399c-1.664,-3.069 -2.588,-6.619 -2.588,-10.354c0,-12.239 9.947,-22.186 22.187,-22.186Zm24.996,6.434l-5.398,5.399c1.627,3.106 2.588,6.619 2.588,10.353c0,12.24 -9.947,22.187 -22.186,22.187l0,-11.093l-14.791,14.791l14.791,14.791l0,-11.093c16.344,0 29.582,-13.238 29.582,-29.583c0,-5.805 -1.701,-11.204 -4.586,-15.752Z" style="fill:#fff;fill-rule:nonzero;"/></svg>