<?xml version="1.0" encoding="UTF-8" standalone="no"?><!DOCTYPE svg PUBLIC "-//W3C//DTD SVG 1.1//EN" "http://www.w3.org/Graphics/SVG/1.1/DTD/svg11.dtd"><svg width="100%" height="100%" viewBox="0 0 267 267" version="1.1" xmlns="http://www.w3.org/2000/svg" xmlns:xlink="http://www.w3.org/1999/xlink" xml:space="preserve" xmlns:serif="http://www.serif.com/" style="fill-rule:evenodd;clip-rule:evenodd;stroke-linejoin:round;stroke-miterlimit:2;"><path d="M167.568,110.447l-9.204,0c0.465,-1.309 0.76,-2.744 0.76,-4.222c0,-7.008 -5.657,-12.666 -12.665,-12.666c-4.433,0 -8.275,2.28 -10.555,5.7l-2.111,2.829l-2.111,-2.871c-2.28,-3.378 -6.122,-5.658 -10.555,-5.658c-7.009,0 -12.666,5.658 -12.666,12.666c0,1.478 0.296,2.913 0.76,4.222l-9.204,0c-4.686,0 -8.402,3.758 -8.402,8.444l-0.042,46.442c0,4.686 3.758,8.444 8.444,8.444l67.551,0c4.687,0 8.444,-3.758 8.444,-8.444l0,-46.442c0,-4.686 -3.757,-8.444 -8.444,-8.444Zm-21.109,-8.444c2.322,0 4.222,1.9 4.222,4.222c0,2.322 -1.9,4.222 -4.222,4.222c-2.322,0 -4.222,-1.9 -4.222,-4.222c0,-2.322 1.9,-4.222 4.222,-4.222Zm-25.332,0c2.322,0 4.222,1.9 4.222,4.222c0,2.322 -1.9,4.222 -4.222,4.222c-2.322,0 -4.222,-1.9 -4.222,-4.222c0,-2.322 1.9,-4.222 4.222,-4.222Zm46.441,63.33l-67.551,0l0,-8.444l67.551,0l0,8.444Zm0,-21.11l-67.551,0l0,-25.332l21.448,0l-8.782,11.948l6.84,4.94l14.27,-19.421l14.27,19.421l6.839,-4.94l-8.781,-11.948l21.447,0l0,25.332Z" style="fill:#fff;fill-rule:nonzero;"/></svg>