<?xml version="1.0" encoding="UTF-8" standalone="no"?><!DOCTYPE svg PUBLIC "-//W3C//DTD SVG 1.1//EN" "http://www.w3.org/Graphics/SVG/1.1/DTD/svg11.dtd"><svg width="100%" height="100%" viewBox="0 0 267 267" version="1.1" xmlns="http://www.w3.org/2000/svg" xmlns:xlink="http://www.w3.org/1999/xlink" xml:space="preserve" xmlns:serif="http://www.serif.com/" style="fill-rule:evenodd;clip-rule:evenodd;stroke-linejoin:round;stroke-miterlimit:2;"><path d="M177.51,122.855c0,-3.067 -1.624,-5.75 -4.126,-7.24l-39.724,-22.572l-39.724,22.572c-2.502,1.49 -4.17,4.173 -4.17,7.24l0,42.588c0,4.685 3.95,8.518 8.778,8.518l70.231,0c4.828,0 8.779,-3.833 8.779,-8.518l-0.044,-42.588Zm-8.779,0l0,0.042l-35.071,21.252l-35.116,-21.294l35.116,-19.932l35.071,19.932Zm-70.187,42.588l0,-32.622l35.116,21.379l35.071,-21.252l0.044,32.495l-70.231,0Z" style="fill:#fff;fill-rule:nonzero;"/></svg>