<?xml version="1.0" encoding="UTF-8" standalone="no"?><!DOCTYPE svg PUBLIC "-//W3C//DTD SVG 1.1//EN" "http://www.w3.org/Graphics/SVG/1.1/DTD/svg11.dtd"><svg width="100%" height="100%" viewBox="0 0 267 267" version="1.1" xmlns="http://www.w3.org/2000/svg" xmlns:xlink="http://www.w3.org/1999/xlink" xml:space="preserve" xmlns:serif="http://www.serif.com/" style="fill-rule:evenodd;clip-rule:evenodd;stroke-linejoin:round;stroke-miterlimit:2;"><g><path d="M125.699,117.362l-13.769,13.769c1.314,0.509 2.373,1.144 3.263,1.653c1.567,0.974 2.499,1.525 4.872,1.525c2.372,0 3.304,-0.551 4.872,-1.525c1.949,-1.144 4.575,-2.712 9.278,-2.712c4.703,0 7.329,1.568 9.236,2.712c1.567,0.932 2.542,1.525 4.872,1.525c2.33,0 3.305,-0.551 4.872,-1.525c0.509,-0.297 1.102,-0.636 1.737,-0.975l-27.199,-27.157c-6.567,-6.566 -12.625,-8.515 -23.217,-8.473l0,10.592c7.711,-0.043 12.244,1.652 16.947,6.355l4.236,4.236Zm50.84,36.012l-0.085,0l0.085,0Zm-70.54,-4.237c2.33,0 3.305,0.593 4.872,1.525c1.907,1.144 4.533,2.712 9.236,2.712c4.703,0 7.329,-1.568 9.236,-2.712c1.567,-0.974 2.5,-1.525 4.872,-1.525c2.33,0 3.305,0.593 4.872,1.525c1.907,1.144 4.533,2.712 9.236,2.712c4.703,0 7.329,-1.568 9.236,-2.712c1.567,-0.974 2.5,-1.525 4.872,-1.525c2.33,0 3.305,0.593 4.872,1.525c1.907,1.144 4.491,2.669 9.151,2.712l0,-8.474c-2.33,0 -3.304,-0.593 -4.872,-1.525c-1.906,-1.144 -4.533,-2.711 -9.236,-2.711c-4.702,0 -7.329,1.567 -9.236,2.711c-1.567,0.975 -2.542,1.525 -4.872,1.525c-2.33,0 -3.304,-0.593 -4.872,-1.525c-1.906,-1.144 -4.533,-2.711 -9.236,-2.711c-4.702,0 -7.329,1.567 -9.236,2.711c-1.567,0.975 -2.499,1.525 -4.872,1.525c-2.33,0 -3.304,-0.593 -4.872,-1.525c-1.906,-1.144 -4.533,-2.711 -9.236,-2.711c-4.702,0 -7.329,1.567 -9.236,2.711c-1.567,0.975 -2.499,1.525 -4.872,1.525l0,8.474c4.703,0 7.33,-1.568 9.321,-2.712c1.567,-0.974 2.542,-1.525 4.872,-1.525Zm56.432,10.592c-4.703,0 -7.329,1.567 -9.236,2.711c-1.567,0.975 -2.542,1.525 -4.872,1.525c-2.33,0 -3.305,-0.593 -4.872,-1.525c-1.907,-1.144 -4.533,-2.711 -9.236,-2.711c-4.703,0 -7.329,1.567 -9.278,2.711c-1.568,0.975 -2.5,1.525 -4.872,1.525c-2.373,0 -3.305,-0.55 -4.872,-1.525c-1.907,-1.144 -4.534,-2.711 -9.236,-2.711c-4.703,0 -7.33,1.567 -9.279,2.711c-1.567,0.975 -2.499,1.525 -4.872,1.525l0,8.474c4.703,0 7.33,-1.568 9.279,-2.712c1.567,-0.974 2.542,-1.525 4.872,-1.525c2.33,0 3.304,0.551 4.872,1.525c1.906,1.144 4.533,2.712 9.236,2.712c4.702,0 7.329,-1.568 9.278,-2.712c1.567,-0.974 2.5,-1.525 4.872,-1.525c2.33,0 3.305,0.593 4.872,1.525c1.907,1.144 4.533,2.712 9.236,2.712c4.703,0 7.287,-1.568 9.236,-2.712c1.567,-0.974 2.5,-1.525 4.872,-1.525c2.33,0 3.305,0.593 4.872,1.525c1.907,1.144 4.533,2.712 9.236,2.712l0,-8.474c-2.372,0 -3.305,-0.55 -4.872,-1.525c-1.907,-1.144 -4.533,-2.711 -9.236,-2.711Z" style="fill:#fff;fill-rule:nonzero;"/><circle cx="153.238" cy="106.771" r="10.592" style="fill:#fff;"/></g></svg>