<?xml version="1.0" encoding="UTF-8" standalone="no"?><!DOCTYPE svg PUBLIC "-//W3C//DTD SVG 1.1//EN" "http://www.w3.org/Graphics/SVG/1.1/DTD/svg11.dtd"><svg width="100%" height="100%" viewBox="0 0 8500 1192" version="1.1" xmlns="http://www.w3.org/2000/svg" xmlns:xlink="http://www.w3.org/1999/xlink" xml:space="preserve" xmlns:serif="http://www.serif.com/" style="fill-rule:evenodd;clip-rule:evenodd;stroke-linejoin:round;stroke-miterlimit:2;"><g><path d="M2706.36,20.864c69.948,-18.397 111.456,-33.569 112.362,-33.907l-2.892,-7.813c-2.007,0.744 -203.965,74.533 -472.435,94.102c-247.491,18.04 -603.787,-7.636 -895.7,-232.394l-2.736,-2.106l-2.578,2.298c-2.432,2.167 -246.773,219.007 -550.385,409.478c-178.184,111.786 -341.601,192.743 -485.708,240.621c-179.61,59.682 -329.368,67.795 -445.155,24.154l-2.939,7.799c117.636,44.335 269.319,36.231 450.771,-24.061c144.748,-48.098 308.785,-129.353 487.553,-241.51c287.4,-180.316 521.776,-384.195 548.821,-407.977c129.294,98.875 281.568,167.724 452.636,204.635c137.723,29.719 287.867,38.92 446.26,27.355c122.296,-9.223 243.502,-29.532 362.125,-60.674Z" style="fill:#6c63ff;fill-opacity:0.13;fill-rule:nonzero;"/><path d="M2608.4,43.977l-129.308,22.88l95.529,156.654l33.779,-179.534Z" style="fill:#6c63ff;fill-opacity:0.13;fill-rule:nonzero;"/><path d="M2333.47,82.288l-10.583,134.188l-86.434,-130.261l97.017,-3.927Z" style="fill:#6c63ff;fill-opacity:0.13;fill-rule:nonzero;"/><path d="M1916.38,48.947l-97.383,119.103l-10.795,-136.678l108.178,17.575Z" style="fill:#6c63ff;fill-opacity:0.13;fill-rule:nonzero;"/><path d="M1254.16,-4.505l31.254,175.023l-109.787,-104.814l78.533,-70.209Z" style="fill:#6c63ff;fill-opacity:0.13;fill-rule:nonzero;"/><path d="M463.231,479.79l-40.627,210.619l-125.619,-166.895l166.246,-43.724Z" style="fill:#6c63ff;fill-opacity:0.13;fill-rule:nonzero;"/><path d="M968.375,211.273l48.937,184.858l-148.008,-121.711l99.071,-63.147Z" style="fill:#6c63ff;fill-opacity:0.13;fill-rule:nonzero;"/></g><g><path d="M2600,729.533l24.178,-6.359l20.136,76.563l-24.177,6.359l-20.137,-76.563Z" style="fill:#6c63ff;fill-opacity:0.14;"/><path d="M1112.51,577.895l24.177,-6.358l20.137,76.563l-24.178,6.358l-20.136,-76.563Z" style="fill:#6c63ff;fill-opacity:0.14;"/><path d="M2151.9,614.734l24.178,-6.358l20.137,76.563l-24.178,6.358l-20.137,-76.563Z" style="fill:#6c63ff;fill-opacity:0.14;"/><path d="M1034.2,951.777l24.178,-6.359l20.136,76.563l-24.177,6.359l-20.137,-76.563Z" style="fill:#6c63ff;fill-opacity:0.14;"/><path d="M2312.58,823.216l22.877,10.082l-31.927,72.443l-22.877,-10.082l31.927,-72.443Z" style="fill:#6c63ff;fill-opacity:0.14;"/><path d="M1156.5,1161.74l22.877,10.083l-31.927,72.443l-22.877,-10.082l31.927,-72.444Z" style="fill:#6c63ff;fill-opacity:0.14;"/><path d="M2469.79,1042.84l17.76,-17.596l55.72,56.237l-17.759,17.596l-55.721,-56.237Z" style="fill:#6c63ff;fill-opacity:0.14;"/><path d="M1086.02,777.759l17.759,-17.596l55.721,56.237l-17.76,17.596l-55.72,-56.237Z" style="fill:#6c63ff;fill-opacity:0.14;"/><path d="M2382.53,268.746l17.759,-17.595l55.72,56.237l-17.759,17.596l-55.72,-56.238Z" style="fill:#6c63ff;fill-opacity:0.14;"/></g></svg>