<?xml version="1.0" encoding="UTF-8" standalone="no"?><!DOCTYPE svg PUBLIC "-//W3C//DTD SVG 1.1//EN" "http://www.w3.org/Graphics/SVG/1.1/DTD/svg11.dtd"><svg width="100%" height="100%" viewBox="0 0 8500 1192" version="1.1" xmlns="http://www.w3.org/2000/svg" xmlns:xlink="http://www.w3.org/1999/xlink" xml:space="preserve" xmlns:serif="http://www.serif.com/" style="fill-rule:evenodd;clip-rule:evenodd;stroke-linejoin:round;stroke-miterlimit:2;"><g><path d="M5965.57,29.808c-69.437,-18.262 -110.642,-33.324 -111.541,-33.658l2.871,-7.757c1.992,0.739 202.474,73.988 468.981,93.414c245.681,17.908 599.373,-7.579 889.152,-230.695l2.715,-2.09l2.56,2.281c2.414,2.151 244.969,217.405 546.361,406.485c176.881,110.967 339.103,191.333 482.157,238.861c178.297,59.246 326.959,67.3 441.9,23.977l2.918,7.742c-116.776,44.012 -267.35,35.967 -447.476,-23.885c-143.69,-47.746 -306.527,-128.407 -483.988,-239.744c-285.299,-178.997 -517.962,-381.386 -544.809,-404.995c-128.348,98.153 -279.51,166.498 -449.326,203.14c-136.717,29.501 -285.763,38.635 -442.998,27.155c-121.402,-9.156 -241.722,-29.316 -359.477,-60.231Z" style="fill:#6c63ff;fill-opacity:0.13;fill-rule:nonzero;"/><path d="M6062.81,52.752l128.363,22.713l-94.831,155.509l-33.532,-178.222Z" style="fill:#6c63ff;fill-opacity:0.13;fill-rule:nonzero;"/><path d="M6335.73,90.783l10.506,133.208l85.802,-129.31l-96.308,-3.898Z" style="fill:#6c63ff;fill-opacity:0.13;fill-rule:nonzero;"/><path d="M6749.77,57.685l96.671,118.233l10.716,-135.679l-107.387,17.446Z" style="fill:#6c63ff;fill-opacity:0.13;fill-rule:nonzero;"/><path d="M7407.15,4.625l-31.026,173.744l108.985,-104.048l-77.959,-69.696Z" style="fill:#6c63ff;fill-opacity:0.13;fill-rule:nonzero;"/><path d="M8192.3,485.379l40.33,209.079l124.701,-165.675l-165.031,-43.404Z" style="fill:#6c63ff;fill-opacity:0.13;fill-rule:nonzero;"/><path d="M7690.85,218.825l-48.579,183.506l146.926,-120.82l-98.347,-62.686Z" style="fill:#6c63ff;fill-opacity:0.13;fill-rule:nonzero;"/></g><g><path d="M6216.98,733.296l-24.001,-6.312l-19.989,76.003l24.001,6.312l19.989,-76.003Z" style="fill:#6c63ff;fill-opacity:0.14;"/><path d="M7693.6,582.767l-24.001,-6.312l-19.99,76.003l24.001,6.312l19.99,-76.003Z" style="fill:#6c63ff;fill-opacity:0.14;"/><path d="M6661.81,619.337l-24.001,-6.313l-19.989,76.004l24.001,6.312l19.989,-76.003Z" style="fill:#6c63ff;fill-opacity:0.14;"/><path d="M7771.34,953.916l-24.001,-6.313l-19.99,76.003l24.001,6.313l19.99,-76.003Z" style="fill:#6c63ff;fill-opacity:0.14;"/><path d="M6502.3,826.294l-22.709,10.008l31.693,71.914l22.71,-10.009l-31.694,-71.913Z" style="fill:#6c63ff;fill-opacity:0.14;"/><path d="M7649.93,1162.34l-22.71,10.008l31.694,71.914l22.709,-10.009l-31.693,-71.913Z" style="fill:#6c63ff;fill-opacity:0.14;"/><path d="M6346.24,1044.32l-17.629,-17.467l-55.313,55.826l17.629,17.467l55.313,-55.826Z" style="fill:#6c63ff;fill-opacity:0.14;"/><path d="M7719.89,781.169l-17.629,-17.467l-55.313,55.826l17.63,17.467l55.312,-55.826Z" style="fill:#6c63ff;fill-opacity:0.14;"/><path d="M6432.86,275.878l-17.63,-17.467l-55.312,55.826l17.629,17.467l55.313,-55.826Z" style="fill:#6c63ff;fill-opacity:0.14;"/></g><g><path d="M2706.36,20.864c69.948,-18.397 111.456,-33.569 112.362,-33.907l-2.892,-7.813c-2.007,0.744 -203.965,74.533 -472.435,94.102c-247.491,18.04 -603.787,-7.636 -895.7,-232.394l-2.736,-2.106l-2.578,2.298c-2.432,2.167 -246.773,219.007 -550.385,409.478c-178.184,111.786 -341.601,192.743 -485.708,240.621c-179.61,59.682 -329.368,67.795 -445.155,24.154l-2.939,7.799c117.636,44.335 269.319,36.231 450.771,-24.061c144.748,-48.098 308.785,-129.353 487.553,-241.51c287.4,-180.316 521.776,-384.195 548.821,-407.977c129.294,98.875 281.568,167.724 452.636,204.635c137.723,29.719 287.867,38.92 446.26,27.355c122.296,-9.223 243.502,-29.532 362.125,-60.674Z" style="fill:#6c63ff;fill-opacity:0.13;fill-rule:nonzero;"/><path d="M2608.4,43.977l-129.308,22.88l95.529,156.654l33.779,-179.534Z" style="fill:#6c63ff;fill-opacity:0.13;fill-rule:nonzero;"/><path d="M2333.47,82.288l-10.583,134.188l-86.434,-130.261l97.017,-3.927Z" style="fill:#6c63ff;fill-opacity:0.13;fill-rule:nonzero;"/><path d="M1916.38,48.947l-97.383,119.103l-10.795,-136.678l108.178,17.575Z" style="fill:#6c63ff;fill-opacity:0.13;fill-rule:nonzero;"/><path d="M1254.16,-4.505l31.254,175.023l-109.787,-104.814l78.533,-70.209Z" style="fill:#6c63ff;fill-opacity:0.13;fill-rule:nonzero;"/><path d="M463.231,479.79l-40.627,210.619l-125.619,-166.895l166.246,-43.724Z" style="fill:#6c63ff;fill-opacity:0.13;fill-rule:nonzero;"/><path d="M968.375,211.273l48.937,184.858l-148.008,-121.711l99.071,-63.147Z" style="fill:#6c63ff;fill-opacity:0.13;fill-rule:nonzero;"/></g><g><path d="M2308.33,729.533l24.177,-6.359l20.137,76.563l-24.178,6.359l-20.136,-76.563Z" style="fill:#6c63ff;fill-opacity:0.14;"/><path d="M820.842,577.895l24.178,-6.358l20.136,76.563l-24.178,6.358l-20.136,-76.563Z" style="fill:#6c63ff;fill-opacity:0.14;"/><path d="M1860.23,614.734l24.178,-6.358l20.136,76.563l-24.178,6.358l-20.136,-76.563Z" style="fill:#6c63ff;fill-opacity:0.14;"/><path d="M742.532,951.777l24.177,-6.359l20.137,76.563l-24.178,6.359l-20.136,-76.563Z" style="fill:#6c63ff;fill-opacity:0.14;"/><path d="M2020.91,823.216l22.877,10.082l-31.927,72.443l-22.877,-10.082l31.927,-72.443Z" style="fill:#6c63ff;fill-opacity:0.14;"/><path d="M864.83,1161.74l22.876,10.083l-31.926,72.443l-22.877,-10.082l31.927,-72.444Z" style="fill:#6c63ff;fill-opacity:0.14;"/><path d="M2178.13,1042.84l17.759,-17.596l55.72,56.237l-17.759,17.596l-55.72,-56.237Z" style="fill:#6c63ff;fill-opacity:0.14;"/><path d="M794.357,777.759l17.759,-17.596l55.72,56.237l-17.759,17.596l-55.72,-56.237Z" style="fill:#6c63ff;fill-opacity:0.14;"/><path d="M2090.86,268.746l17.759,-17.595l55.72,56.237l-17.759,17.596l-55.72,-56.238Z" style="fill:#6c63ff;fill-opacity:0.14;"/></g></svg>