<?xml version="1.0" encoding="UTF-8" standalone="no"?><!DOCTYPE svg PUBLIC "-//W3C//DTD SVG 1.1//EN" "http://www.w3.org/Graphics/SVG/1.1/DTD/svg11.dtd"><svg width="100%" height="100%" viewBox="0 0 417 134" version="1.1" xmlns="http://www.w3.org/2000/svg" xmlns:xlink="http://www.w3.org/1999/xlink" xml:space="preserve" xmlns:serif="http://www.serif.com/" style="fill-rule:evenodd;clip-rule:evenodd;stroke-linejoin:round;stroke-miterlimit:2;"><g><path d="M81.889,100.801c0,-5.935 20.371,-23.659 41.625,-29.434c-10.346,-0.24 -46.597,18.928 -46.597,30.798c0,6.335 7.699,7.859 12.992,7.859c21.895,0 61.836,-17.163 61.836,-34.727c0,-8.902 -9.384,-11.87 -18.447,-14.356c-8.1,-2.246 -15.799,-4.251 -15.799,-8.902c0,-8.261 23.579,-21.494 33.845,-22.617c1.042,-0.08 2.085,-0.16 2.967,-0.16c3.048,0 5.213,0.721 4.812,3.288c-1.043,7.298 -16.682,16.281 -19.97,16.281c-0.481,0 -0.962,0 -0.962,-0.482c0,-1.122 0.481,-2.807 1.684,-4.17c-1.604,0.962 -4.732,4.411 -4.732,7.699c0,1.765 2.406,2.406 4.01,2.406c8.501,0 22.456,-10.346 22.617,-19.89c0.08,-6.175 -4.812,-7.939 -12.111,-7.699c-11.709,0.401 -37.614,11.148 -37.614,24.622c0,7.058 10.907,8.501 20.531,11.148c7.86,2.165 14.517,5.133 14.517,10.105c0,12.111 -39.138,31.439 -58.467,31.439c-2.566,0 -6.737,-0.08 -6.737,-3.208Z" style="fill:#ff2c87;fill-rule:nonzero;"/><path d="M172.998,85.001c-0.401,1.203 -0.882,2.647 -0.882,3.449c0,1.444 1.604,3.288 2.887,3.93c0.401,0.321 0.882,0.481 1.283,0.481c4.812,0 17.885,-13.393 24.863,-21.013c0.24,-0.24 -0.161,-0.882 -0.642,-0.481c-4.892,4.652 -16.281,15.559 -21.334,17.083c0,-2.246 2.968,-7.94 6.978,-13.313c2.647,-3.529 4.892,-6.416 6.095,-7.7c1.043,-1.122 2.085,-1.844 2.647,-1.844c0.722,0.08 0.962,0.481 0.962,0.16c0,-2.005 -3.047,-5.133 -4.972,-5.133c-0.321,0 -0.722,0.08 -1.123,0.401c-4.571,3.529 -10.506,10.507 -14.677,14.597c-3.85,3.689 -12.03,10.907 -15.88,12.511c0,-2.326 4.01,-9.303 8.101,-14.677c2.726,-3.528 6.095,-7.699 7.298,-7.538c0.722,0.08 1.043,0.481 1.043,0.16c0,-2.085 -3.128,-5.213 -5.053,-5.213c-0.241,0 -0.722,0.08 -1.123,0.481c-2.005,1.604 -5.373,5.454 -8.18,9.384c-4.572,6.336 -8.983,14.436 -8.983,17.884c0,1.925 2.486,4.091 3.769,4.091l0.642,0c4.812,-0.963 15.559,-12.512 23.659,-20.772c-2.967,3.689 -6.015,9.383 -7.378,13.072Z" style="fill:#ff2c87;fill-rule:nonzero;"/><path d="M200.347,70.966c-3.208,4.572 -6.818,10.106 -8.823,14.677c-0.962,1.845 -1.363,3.368 -1.203,4.09c0.562,2.246 2.487,4.732 4.812,4.171c-1.764,-0.802 3.048,-7.86 7.138,-12.271c5.454,-6.015 9.224,-9.223 16.602,-13.554c-2.085,2.406 -4.652,7.058 -4.652,9.303c0,0.963 2.406,3.77 3.85,3.77c5.534,0 15.158,-8.983 16.602,-10.908c-0.081,-0.16 -0.562,-0.08 -0.642,0c-4.972,4.411 -10.506,8.021 -14.356,8.341c2.647,-6.255 9.303,-12.11 11.068,-13.955c0.561,-0.641 -2.727,-4.09 -3.609,-4.01c-1.684,0.161 -4.09,1.524 -7.218,3.77c-6.898,4.972 -14.918,11.709 -19.168,17.243c1.684,-2.967 4.491,-6.737 6.656,-9.624c2.406,-3.208 5.213,-6.336 6.416,-6.256c0.642,0.08 0.883,0.481 0.883,0.161c0,-2.006 -3.048,-5.133 -4.973,-5.133c-0.321,0 -0.642,0.08 -1.123,0.401c-2.005,1.604 -5.453,5.694 -8.26,9.784Z" style="fill:#ff2c87;fill-rule:nonzero;"/><path d="M235.314,68.721c-12.19,15.639 -28.231,40.742 -29.915,54.216c-0.641,4.892 2.968,7.859 6.657,6.416c-1.845,-0.241 -1.845,-1.845 -1.444,-3.85c2.005,-11.87 13.314,-28.953 21.093,-40.101c13.955,-14.676 26.868,-21.092 28.071,-21.092c-0.963,4.491 -15.399,25.263 -23.499,25.263c-1.685,0 -3.048,-1.524 -3.048,-2.326c0,-0.241 -0.401,-0.08 -0.401,0.321c0,2.647 3.689,4.652 6.817,4.652c10.988,0 26.707,-19.249 26.707,-26.467c0,-1.203 -2.807,-4.251 -3.849,-4.652c-4.011,-1.363 -19.008,9.544 -25.986,17.164c0,0 3.449,-4.973 4.492,-6.256c2.566,-3.288 5.373,-6.577 6.576,-6.416c0.562,0.08 0.802,0.401 0.802,0.16c0,-2.085 -3.048,-5.213 -4.892,-5.213c-0.241,0 -0.722,0.08 -1.203,0.481c-1.604,1.283 -4.812,4.973 -6.978,7.7Z" style="fill:#ff2c87;fill-rule:nonzero;"/><path d="M268.999,70.966c-3.208,4.572 -6.817,10.106 -8.822,14.677c-0.963,1.845 -1.364,3.368 -1.203,4.09c0.561,2.246 2.486,4.732 4.812,4.171c-1.765,-0.802 3.047,-7.86 7.138,-12.271c5.453,-6.015 9.223,-9.223 16.601,-13.554c-2.085,2.406 -4.651,7.058 -4.651,9.303c0,0.963 2.406,3.77 3.849,3.77c5.534,0 15.158,-8.983 16.602,-10.908c-0.08,-0.16 -0.561,-0.08 -0.642,0c-4.972,4.411 -10.506,8.021 -14.356,8.341c2.647,-6.255 9.304,-12.11 11.068,-13.955c0.562,-0.641 -2.727,-4.09 -3.609,-4.01c-1.684,0.161 -4.09,1.524 -7.218,3.77c-6.897,4.972 -14.917,11.709 -19.168,17.243c1.684,-2.967 4.491,-6.737 6.657,-9.624c2.406,-3.208 5.213,-6.336 6.416,-6.256c0.641,0.08 0.882,0.481 0.882,0.161c0,-2.006 -3.048,-5.133 -4.973,-5.133c-0.32,0 -0.641,0.08 -1.122,0.401c-2.005,1.604 -5.454,5.694 -8.261,9.784Z" style="fill:#ff2c87;fill-rule:nonzero;"/><path d="M296.428,92.861c3.849,-0.321 12.591,-8.581 19.729,-15.479c2.647,-2.566 6.176,-6.175 9.624,-10.105c1.043,0.962 2.888,1.363 5.053,1.363c1.764,0 3.609,-0.24 5.374,-0.641c-8.903,3.849 -25.505,15.96 -27.028,20.772c-0.562,1.363 1.844,4.331 3.047,4.331c1.203,0 7.379,-5.534 15.479,-5.534c7.78,0 11.79,1.764 13.715,5.133c0.24,0.401 0.481,0.08 0.24,-0.481c-2.566,-5.294 -9.383,-7.138 -15.238,-7.138c-3.449,0 -6.577,0.641 -8.341,1.604c5.053,-5.454 26.386,-18.046 32.562,-18.848c0.882,-1.604 -3.449,-7.218 -4.091,-6.255c-1.764,3.128 -11.789,5.534 -17.082,5.534c-1.524,0 -2.647,-0.241 -3.048,-0.642c0.722,-0.802 5.213,-5.534 5.213,-6.496c0,-1.685 -2.246,-3.449 -3.368,-3.449c-0.802,0 -3.93,2.887 -3.93,7.619c0,0.963 0.24,1.524 0.481,2.085c-2.326,2.968 -6.256,7.138 -10.266,10.828c-5.373,4.972 -12.271,10.586 -15.639,11.468c0.962,-3.288 11.95,-21.574 15.238,-21.253c0.722,0.08 1.043,0.481 1.043,0.16c0,-2.005 -3.128,-5.213 -5.053,-5.213c-0.321,0 -0.722,0.08 -1.123,0.481c-5.133,4.091 -16.842,21.575 -16.842,26.226c0,1.444 2.005,3.449 3.368,3.85c0.321,0.08 0.562,0.08 0.883,0.08Zm21.253,-42.908c-2.165,0.642 -5.213,5.855 -5.133,8.181c0.08,1.444 1.765,3.128 2.887,1.684c0.963,-1.363 4.732,-4.651 6.015,-5.213c0.883,-0.401 1.604,-0.08 1.765,-0.08c0.24,0 -0.161,-1.203 -0.963,-2.005c-1.042,-1.203 -2.807,-2.807 -4.571,-2.567Z" style="fill:#ff2c87;fill-rule:nonzero;"/><path d="M351.526,81.473c8.982,-0.241 24.381,-11.79 24.381,-16.762c0,-2.246 -3.689,-4.091 -4.892,-4.091c-3.449,0 -10.587,2.486 -17.243,8.02c-5.053,4.251 -9.143,9.304 -11.068,13.875c-0.642,1.765 -1.123,3.369 -1.123,5.293c0,2.166 3.208,5.053 5.694,5.053c10.667,0 26.627,-15.318 32.642,-20.932c0.241,-0.241 -0.321,-0.642 -0.561,-0.482c-8.101,6.737 -22.777,17.885 -28.632,17.885c-1.764,0 -2.486,-0.561 -2.406,-1.524c0.24,-2.085 1.764,-4.651 3.208,-6.335Zm21.815,-18.447c-0.482,3.048 -13.795,16.041 -20.772,16.843c2.646,-4.251 11.869,-13.955 20.772,-16.843Z" style="fill:#ff2c87;fill-rule:nonzero;"/><path d="M398.524,63.828c-0.161,1.604 -5.534,7.218 -5.775,7.218c-0.08,0 0.081,0.321 0.161,0.321c2.165,0 7.218,-4.812 7.298,-5.935c0.241,-2.326 -0.802,-6.015 -3.048,-6.015c-7.057,0 -18.606,6.015 -19.889,12.111c-0.722,3.528 4.01,6.416 4.892,7.539c-2.807,1.122 -14.597,7.859 -14.837,11.308c0.401,1.764 1.283,3.208 3.047,3.208c5.213,0 15.8,-4.251 16.923,-9.464c0.24,-1.684 -1.765,-4.01 -2.807,-4.812c8.742,-5.213 24.621,-9.383 23.9,-9.624c0,-0.241 -0.321,-0.401 -0.482,-0.401c-1.042,0 -11.308,1.764 -24.14,8.983c-0.802,-0.722 -2.727,-2.006 -2.406,-3.369c1.042,-3.769 13.474,-11.389 17.163,-11.068Zm-16.04,16.602c0,3.048 -9.945,8.18 -13.073,9.063c2.326,-2.326 8.261,-6.336 13.073,-9.063Z" style="fill:#ff2c87;fill-rule:nonzero;"/></g><g id="Logo"><g id="Group-2"><g id="Group-3"><path id="Fill-1" d="M67.62,40.583l-6.521,-0.447c-0.128,-0.031 -0.301,-0.102 -0.353,-0.224l-3.336,-5.653c-0.193,-0.321 -0.692,-0.281 -0.832,0.066l-2.401,6.11c-0.032,0.128 -0.191,0.225 -0.313,0.277l-6.368,1.471c-0.371,0.072 -0.459,0.541 -0.19,0.771l4.977,4.18c0.09,0.077 0.186,0.237 0.154,0.366l-0.57,6.51c-0.012,0.379 0.386,0.641 0.705,0.448l5.499,-3.46c0.16,-0.097 0.288,-0.065 0.416,-0.033l5.976,2.547c0.346,0.141 0.697,-0.181 0.626,-0.553l-1.592,-6.339c-0.051,-0.121 0.018,-0.295 0.095,-0.385l4.254,-4.914c0.312,-0.277 0.151,-0.726 -0.226,-0.738Z" style="fill:#f749b7;"/><path id="Fill-2" d="M57.422,55.26l5.14,52.942c0.016,0.207 0.138,0.405 0.275,0.446c0.136,0.042 0.247,-0.228 0.2,-0.484l-3.29,-53.088l-0.017,-0.207c-0.129,-1.291 -0.731,-2.18 -1.387,-2.076c-0.657,0.104 -1.05,1.177 -0.921,2.467Z" style="fill:#ffbc05;"/><path id="Fill-2-Copy" d="M56.743,55.339l6.069,52.843c0.02,0.206 0.145,0.402 0.282,0.441c0.137,0.039 0.244,-0.232 0.193,-0.487l-4.223,-53.022l-0.02,-0.207c-0.152,-1.288 -0.77,-2.167 -1.424,-2.051c-0.654,0.115 -1.029,1.194 -0.877,2.483Z" style="fill:#ffbc05;"/></g><g id="Group-31" serif:id="Group-3"><path id="Fill-11" serif:id="Fill-1" d="M25.433,59.268l1.713,5.768l5.639,1.573l-4.539,3.368l0.223,5.913l-4.96,-3.677l-5.455,2.13l1.932,-5.594l-3.721,-4.596l5.853,0.135l3.315,-5.02Z" style="fill:#f749b7;"/><path id="Fill-21" serif:id="Fill-2" d="M31.72,69.479c16.644,7.174 26.535,19.341 27.71,37.667c-2.16,-8.424 -5.997,-26.336 -29.754,-33.757l0.012,-2.267l2.032,-1.643Z" style="fill:#ffbc05;"/></g><g id="Group-3-Copy-2"><path id="Fill-12" serif:id="Fill-1" d="M92.057,53.717l-0.779,5.965l-5.32,2.445l5.013,2.608l0.715,5.875l4.316,-4.415l5.724,1.24l-2.792,-5.217l2.948,-5.126l-5.758,1.058l-4.067,-4.433Z" style="fill:#f749b7;"/><path id="Fill-22" serif:id="Fill-2" d="M87.463,64.792c-15.302,9.714 -23.145,23.291 -21.41,41.573c0.801,-8.66 1.76,-26.953 24.046,-38.035l-0.37,-2.236l-2.266,-1.302Z" style="fill:#ffbc05;"/></g></g></g></svg>