<?xml version="1.0" encoding="UTF-8" standalone="no"?><!DOCTYPE svg PUBLIC "-//W3C//DTD SVG 1.1//EN" "http://www.w3.org/Graphics/SVG/1.1/DTD/svg11.dtd"><svg width="100%" height="100%" viewBox="0 0 267 267" version="1.1" xmlns="http://www.w3.org/2000/svg" xmlns:xlink="http://www.w3.org/1999/xlink" xml:space="preserve" xmlns:serif="http://www.serif.com/" style="fill-rule:evenodd;clip-rule:evenodd;stroke-linejoin:round;stroke-miterlimit:2;"><path d="M171.14,93.14l-0.718,0.135l-23.957,9.287l-26.918,-9.422l-25.303,8.524c-0.942,0.314 -1.615,1.122 -1.615,2.154l0,67.833c0,1.256 0.987,2.243 2.243,2.243l0.718,-0.134l23.957,-9.287l26.918,9.421l25.303,-8.524c0.942,-0.314 1.615,-1.121 1.615,-2.153l0,-67.833c0,-1.257 -0.987,-2.244 -2.243,-2.244Zm-47.107,11.082l17.946,6.281l0,52.31l-17.946,-6.281l0,-52.31Zm-22.431,4.441l13.459,-4.531l0,52.49l-13.459,5.204l0,-53.163Zm62.808,49.709l-13.459,4.531l0,-52.445l13.459,-5.205l0,53.119Z" style="fill:#fff;fill-rule:nonzero;"/></svg>